<svg xmlns="http://www.w3.org/2000/svg" width="36" height="36" viewBox="0 0 36 36"><g transform="translate(717.75 -1244.362)"><rect width="36" height="36" x="-717.75" y="1244.362" fill="#25b39e" rx="6" ry="6"/><g transform="translate(-715.75 226.045)"><path style="isolation:auto;mix-blend-mode:normal" d="m 20.646484,1.9101562 c -0.182849,-0.00184 -0.352119,0.096281 -0.441406,0.2558594 l -1.849609,3.203125 c -0.01784,0.027744 -0.03288,0.057184 -0.04492,0.087891 C 16.976441,4.772807 15.499328,4.4140701 14,4.4101562 c -5.246705,0 -9.4999999,4.2532948 -9.5,9.4999998 0.00341,3.223369 1.6410609,6.225119 4.3496094,7.972656 -0.022466,0.02653 -0.042103,0.05533 -0.058594,0.08594 l -0.8925781,1.544922 -0.1542969,0.269531 -0.7949218,1.375 c -0.3333332,0.578125 0.5338542,1.078125 0.8671874,0.5 L 8.4511719,24.560547 C 9.9062345,25.321168 11.449705,25.753015 13,25.880859 l 0,1.337891 0,0.71875 -3.3339844,0 C 8.4656756,27.9375 7.5,28.8574 7.5,30 l 6.5,0 6.5,0 c 0,-1.1426 -0.965676,-2.0625 -2.166016,-2.0625 l -3.333984,0 0,-0.71875 0,-1.332031 C 18.781986,25.565663 22.353321,23.469612 24.392578,19.9375 27.621421,14.344973 25.818104,7.2307637 20.408203,3.8105469 l 0.662109,-1.1445313 c 0.197159,-0.3310949 -0.0385,-0.7513772 -0.423828,-0.7558594 z m -0.736328,2.765625 c 4.940666,3.1482224 6.573578,9.6377718 3.615235,14.7617188 -2.955444,5.119033 -9.382096,6.95088 -14.5761722,4.257812 L 9.6582031,22.46875 c 0.018439,-0.03084 0.0335,-0.06358 0.044922,-0.09766 1.3306569,0.679422 2.8028039,1.035414 4.2968749,1.039062 5.246705,0 9.5,-4.253295 9.5,-9.5 -0.0039,-3.216193 -1.634885,-6.2120012 -4.333984,-7.9609372 0.02078,-0.024858 0.03909,-0.051677 0.05469,-0.080078 z" color="#000" opacity=".15" overflow="visible" transform="translate(0 1020.362)"/><path fill="#cad1d8" d="m 15.999999,1045.7996 10e-7,1.7814 -10e-7,1.7812 -1.999998,0 -10e-7,-1.7812 10e-7,-1.7814" color="#000" overflow="visible" style="isolation:auto;mix-blend-mode:normal"/><path fill="none" stroke="#cad1d8" stroke-dashoffset="1.5" stroke-linecap="round" stroke-linejoin="round" style="isolation:auto;mix-blend-mode:normal" d="m 20.750216,1024.3403 a 11.5,11.5 0 0 1 4.209292,15.7093 11.5,11.5 0 0 1 -15.7092924,4.2093" color="#000" overflow="visible"/><path fill="none" stroke="#cad1d8" stroke-linecap="round" stroke-linejoin="round" d="M10.224791 1042.5806l-1.8415 3.1896M19.788451 1025.981l1.84953-3.2035"/><circle style="isolation:auto;mix-blend-mode:normal" cx="15" cy="1034.273" r="9.5" fill="#34485c" color="#000" overflow="visible"/><path fill="#4bbfeb" d="m 12.027344,8.1796875 c -0.143175,-0.031688 -0.287665,0.057497 -0.53125,0.2480469 -0.19557,0.153 -0.45103,0.2788969 -0.56836,0.2792968 -0.18968,0.001 -0.18968,-0.014219 0,-0.1367187 0.16793,-0.1091 0.132957,-0.1386719 -0.158203,-0.1386719 -0.46031,-0.0026 -1.2656248,0.2693344 -1.2656248,0.4277344 0,0.0649 -0.1110968,0.1495 -0.2480468,0.1875 -0.13694,0.039 -0.056996,0.051297 0.1777344,0.029297 0.23474,-0.0221 0.5129006,0.030281 0.6191402,0.1132812 0.14384,0.1135 0.238554,0.089503 0.371094,-0.091797 0.098,-0.1339 0.228663,-0.2441406 0.289063,-0.2441406 0.21228,0 0.625003,0.5969688 0.720703,1.0429688 0.05316,0.2477996 0.156169,0.5672846 0.230468,0.7089846 l 0,0.002 c 0.172261,0.3286 0.458579,0.238991 0.517579,-0.16211 0.02502,-0.169899 0.09585,-0.308593 0.15625,-0.308593 0.06047,0 0.225547,-0.2156159 0.367187,-0.4785159 L 12.962891,9.1796875 12.548828,8.6621094 C 12.311963,8.3652094 12.170519,8.211375 12.027344,8.1796875 Z m 2.464844,0.2460937 c -0.02985,-0.00287 -0.06191,0.00917 -0.09375,0.041016 -0.0467,0.0468 -0.03571,0.166625 0.02539,0.265625 0.08965,0.1451 0.123575,0.1447 0.171875,0 0.05154,-0.15465 -0.01397,-0.2980157 -0.103515,-0.3066407 z m 4.43164,0.3027344 c -0.09877,-0.0226 -0.177796,0.021556 -0.24414,0.1289063 -0.04832,0.0782 -0.182769,0.140625 -0.298829,0.140625 -0.11598,0 -0.347231,0.1282031 -0.513671,0.2832031 -0.216191,0.2013 -0.352366,0.2395656 -0.478516,0.1347656 -0.19775,-0.1641 -0.41934,0.05765 -0.28125,0.28125 0.04384,0.071 -0.04771,0.095688 -0.203125,0.054687 -0.15543,-0.042 -0.395113,-0.025844 -0.533203,0.035156 -0.13808,0.06 -0.298422,0.097938 -0.357422,0.085937 -0.05837,-0.0124 -0.107422,0.043094 -0.107422,0.1210937 0,0.0781 -0.128656,0.013922 -0.285156,-0.1425781 -0.38923,-0.3893 -0.615273,-0.3593563 -1.126953,0.1523438 -0.4753,0.4753 -0.551825,0.768625 -0.234375,0.890625 0.13219,0.0507 0.252456,-0.06684 0.347656,-0.339843 0.16694,-0.478901 0.459211,-0.5753289 0.33789,-0.111329 -0.05747,0.2194 -0.02966,0.275266 0.0957,0.197266 0.12862,-0.0796 0.125871,-0.02879 -0.01172,0.191406 -0.10283,0.1647 -0.253031,0.300547 -0.332031,0.310547 -0.62831,0.0476 -1.06836,0.313685 -1.06836,0.646484 0,0.1079 -0.06844,0.195313 -0.152344,0.195313 -0.08354,0 -0.131621,0.151337 -0.107421,0.335937 0.02423,0.1849 -0.03803,0.435341 -0.138672,0.556641 -0.27404,0.33 -0.378858,1.204172 -0.173828,1.451172 0.09622,0.1159 0.387654,0.250828 0.646484,0.298828 0.49463,0.0928 0.629719,0.334122 0.636719,1.107422 0.0011,0.2229 0.104968,0.620166 0.230468,0.884766 l 0,0.0039 c 0.196,0.4132 0.26743,0.459631 0.50586,0.332031 0.15279,-0.0818 0.311062,-0.256972 0.351562,-0.388672 0.04044,-0.1319 0.132479,-0.350628 0.205078,-0.486328 0.0729,-0.1359 0.13086,-0.403503 0.13086,-0.595703 0,-0.1922 0.141613,-0.590013 0.314453,-0.882813 0.29987,-0.5086 0.301156,-0.529546 0.03516,-0.435546 -0.18613,0.0656 -0.147969,10e-4 0.113281,-0.197266 0.38717,-0.2935 0.539399,-0.734062 0.230469,-0.664062 -0.08798,0.0195 -0.188409,-0.04748 -0.224609,-0.146485 -0.05294,-0.1468 0.01447,-0.148166 0.33789,-0.0098 0.61111,0.2615 0.732632,0.38529 0.832032,0.83789 0.08834,0.4072 0.411237,0.783484 0.335937,0.396484 -0.0565,-0.2903 0.157808,-0.832031 0.330078,-0.832031 0.08358,0 0.304895,0.163281 0.490235,0.363281 0.36316,0.391601 0.683718,0.344922 0.548828,-0.08008 -0.05728,-0.1806 0.0036,-0.289562 0.199219,-0.351562 0.32565,-0.1033 0.465753,-0.433531 0.376953,-0.894531 -0.05479,-0.2844 -0.03056,-0.30181 0.230468,-0.16211 0.18946,0.102 0.262126,0.104766 0.203126,0.0098 -0.05032,-0.0812 0.04503,-0.275041 0.21289,-0.431641 0.21796,-0.204 0.28135,-0.382812 0.21875,-0.632812 -0.11399,-0.454 0.127886,-0.644797 0.916016,-0.716797 0.87733,-0.0815 1.126953,-0.211291 1.126953,-0.587891 0,-0.2688001 -0.09294,-0.3404376 -0.533203,-0.3984375 -1.84733,-0.2465 -2.528075,-0.4106751 -2.771485,-0.671875 -0.145084,-0.1557398 -0.264515,-0.2449679 -0.36328,-0.2675679 z m -8.849609,0.00195 c 0.06446,0 0.128834,0.0098 0.177734,0.029297 0.09786,0.04 0.01792,0.072266 -0.177734,0.072266 -0.1956103,0 -0.2755346,-0.033266 -0.1777346,-0.072266 0.048895,-0.0195 0.1132776,-0.029297 0.1777346,-0.029297 z m 6.769531,0.125 c -0.11925,0 -0.2881,0.1324218 -0.375,0.2949218 -0.1437,0.2684 -0.130381,0.2824781 0.130859,0.1425782 0.38405,-0.2055001 0.512631,-0.4375 0.244141,-0.4375 z M 9.6035156,9.2988281 c -0.070691,0 -0.079329,0.042753 -0.027344,0.1269531 0.04832,0.0783 0.2270175,0.1408594 0.3984375,0.1308594 0.3003199,-0.0097 0.3016639,-0.012959 0.027344,-0.1308594 C 9.8059731,9.3415812 9.6742069,9.2988281 9.6035156,9.2988281 Z m -0.7695312,0.035156 c -0.025785,0.011513 -0.041016,0.039078 -0.041016,0.080078 0,0.0826 0.064278,0.1523437 0.1425781,0.1523437 0.07827,0 0.1425781,-0.030453 0.1425781,-0.064453 0,-0.0344 -0.064378,-0.1023906 -0.1425781,-0.1503906 -0.03914,-0.02405 -0.075778,-0.029091 -0.1015625,-0.017578 z m -0.609375,0.2304687 c -0.07827,0 -0.1425782,0.097544 -0.1425782,0.2148438 0,0.1344 0.1345213,0.2128906 0.3632813,0.2128906 0.1983861,0 0.323197,0.061711 0.28125,0.1347658 -0.042254,0.07298 0.048452,0.123209 0.2050781,0.111328 0.15812,-0.012 0.2851563,-0.05466 0.2851563,-0.09766 -0.00633,-0.2208003 -0.24791,-0.3872815 -0.53125,-0.3632815 -0.17611,0.0139 -0.3183594,-0.02775 -0.3183594,-0.09375 0,-0.0645 -0.064378,-0.1191407 -0.1425781,-0.1191407 z m 1.2675781,0.1601563 c -0.049419,-0.00212 -0.1049,0.00634 -0.15625,0.027344 -0.11351,0.046 -0.079783,0.075938 0.085937,0.085937 0.14977,0.007 0.2331469,-0.027219 0.1855469,-0.074219 -0.023665,-0.0235 -0.065816,-0.036938 -0.1152344,-0.039063 z m 0.3554687,0.019531 c -0.05495,0.0549 -0.021081,0.1936938 0.074219,0.3085939 0.1429798,0.1713 0.1221688,0.2065 -0.1132812,0.1875 -0.15683,-0.0118 -0.2526907,-0.08792 -0.2128907,-0.169922 0.03952,-0.081099 -0.013567,-0.04607 -0.1171875,0.07813 -0.19898,0.2386 -0.6596475,0.305206 -0.8984375,0.128906 -0.07824,-0.0576 -0.6709062,-0.151078 -1.3164062,-0.205078 L 6.3535156,9.9960938 A 9.5,9.5 0 0 0 6.0976562,10.626953 c 0.010854,0.278777 0.064838,0.532917 0.1367188,0.578125 0.0796,0.049 0.1067469,0.163859 0.060547,0.25586 -0.04641,0.0925 0.043659,0.02396 0.1992187,-0.152344 0.18883,-0.2146 0.3684288,-0.288563 0.5429688,-0.226563 0.46741,0.1656 0.9023437,0.660244 0.9023437,1.027344 0,0.5673 1.0521363,2.004416 1.7226563,2.353516 l 0,-0.002 c 0.18712,0.0974 0.3710565,0.148328 0.4101565,0.111328 0.03917,-0.0366 -0.0042,-0.09395 -0.097657,-0.126954 -0.0969,-0.0335 -0.1374563,-0.147653 -0.097656,-0.251953 0.04576,-0.1197 -0.023297,-0.180968 -0.1855469,-0.167968 -0.17105,0.0141 -0.2578124,-0.07537 -0.2578124,-0.263672 0,-0.2168 0.092365,-0.289297 0.390625,-0.279297 0.2191003,0.0032 0.3906253,-0.07092 0.3906253,-0.169922 0,-0.2411 0.628394,-0.901063 0.871094,-0.914062 0.14434,-0.008 0.147838,-0.02903 0.01758,-0.08203 -0.35143,-0.1419 -0.176457,-0.362484 0.214843,-0.271484 0.29024,0.0671 0.336075,0.05251 0.177735,-0.05469 -0.1171,-0.0785 -0.152625,-0.146484 -0.07813,-0.146484 0.07448,-0.0012 -0.08548,-0.219928 -0.355469,-0.486328 -0.5178,-0.5106 -0.705078,-0.530972 -0.705078,-0.07617 0,0.3319 -0.136169,0.3481 -0.5058596,0.0625 -0.25043,-0.1937 -0.2560681,-0.228625 -0.048828,-0.390625 0.1255,-0.098 0.2746776,-0.322347 0.3300776,-0.498047 0.10994,-0.3465 0.294149,-0.412909 0.449219,-0.162109 0.05372,0.0871 0.01863,0.206625 -0.07617,0.265625 -0.12388,0.0767 -0.101175,0.132172 0.07813,0.201172 0.25506,0.0979 0.5167,-0.14891 0.4375,-0.41211 -0.06311,-0.2092 -1.0571377,-0.7202154 -1.1738278,-0.6035154 z m 2.9999998,0.2949219 c -0.223,0 -0.278257,0.126051 -0.123047,0.28125 0.10632,0.106301 0.335938,-0.0097 0.335938,-0.169921 0,-0.0601 -0.09548,-0.111329 -0.212891,-0.111329 z m 8.722656,0.839844 c -0.09296,0.0309 -0.195262,0.13161 -0.226562,0.22461 -0.08535,0.2563 0.209394,0.201859 0.308594,-0.05664 0.05313,-0.139 0.02194,-0.201969 -0.08203,-0.167969 z m -7.988281,0.05078 c -0.04127,-0.0049 -0.09405,0.03735 -0.179687,0.123046 -0.23022,0.23 -0.266931,0.420916 -0.05664,0.291016 0.07828,-0.0485 0.142578,-0.0062 0.142578,0.0918 0,0.123 0.04535,0.13235 0.146485,0.03125 0.081,-0.0808 0.10564,-0.252259 0.05664,-0.380859 -0.03845,-0.100251 -0.0681,-0.151388 -0.109375,-0.15625 z m 2.611328,0.839843 c 0.09381,-0.0581 0.272297,0.379435 0.279297,0.677735 0.0011,0.0588 -0.05415,0.107422 -0.123047,0.107422 -0.16292,0 -0.29896,-0.697158 -0.15625,-0.785157 z m -0.742187,0.03906 c 0.17447,-0.0457 0.26189,0.01736 0.27539,0.197265 0.0108,0.145 0.0071,0.258047 -0.0078,0.248047 -0.01471,-0.01 -0.138521,-0.04703 -0.275391,-0.08203 -0.32261,-0.0842 -0.318177,-0.27928 0.0078,-0.363281 z m -1.017578,0.130859 c 0.06683,0.01904 0.118751,0.05975 0.144531,0.126953 0.04271,0.1114 0.199556,0.203125 0.347656,0.203125 0.14811,0 0.269531,0.06358 0.269531,0.142578 0,0.0783 0.09875,0.142579 0.220704,0.142579 0.12179,0 0.183065,0.06458 0.134765,0.142578 -0.04833,0.0784 -0.340077,0.140625 -0.648437,0.140625 -0.30836,0 -0.560547,-0.06263 -0.560547,-0.140625 0,-0.0782 -0.162978,-0.142578 -0.361328,-0.142578 -0.30859,0 -0.34092,-0.03928 -0.21875,-0.267579 0.13911,-0.25995 0.471388,-0.404787 0.671875,-0.347656 z m 6.341797,0.04492 c -0.05699,6e-4 -0.177179,0.160569 -0.267579,0.355469 -0.0903,0.195 -0.116893,0.355468 -0.05859,0.355468 0.05834,0 0.178478,-0.159868 0.267578,-0.355468 0.0889,-0.1956 0.115394,-0.356069 0.05859,-0.355469 z m -5.291016,1.167969 c 0.0031,-0.0551 0.104219,0.08063 0.224609,0.302734 0.12051,0.2221 0.192857,0.430891 0.160157,0.462891 -0.06282,0.0629 -0.394766,-0.596525 -0.384766,-0.765625 z m -5.3125,0.683594 c -0.10175,0.0012 -0.08523,0.05862 0.04297,0.140624 0.27312,0.176601 0.324003,0.176601 0.214844,0 -0.0484,-0.078 -0.164613,-0.140624 -0.257813,-0.140624 z m 8.478516,0.61914 c -0.02577,0.01151 -0.04102,0.04103 -0.04102,0.08203 0,0.0835 0.06438,0.150391 0.142578,0.150391 0.07828,0 0.142578,-0.03045 0.142578,-0.06445 0,-0.0344 -0.06438,-0.102391 -0.142578,-0.150391 -0.0391,-0.02405 -0.07579,-0.02909 -0.101562,-0.01758 z m 0.810547,0.02148 c -0.07737,0.0479 -0.140626,0.146704 -0.140626,0.220704 0,0.2046 0.102666,0.158509 0.197266,-0.08789 0.04844,-0.1239 0.02406,-0.182812 -0.05664,-0.132813 z m -9.087891,0.322266 c -0.104494,0.0012 -0.179931,0.111225 -0.275391,0.375 -0.2340998,0.6475 -0.2073454,0.945563 0.115235,1.289063 0.25605,0.2725 0.269997,0.39994 0.154297,1.43164 -0.08529,0.7577 -0.07947,1.191047 0.01953,1.310547 0.19229,0.2312 0.180597,0.247344 0.216797,-0.285156 0.01727,-0.2541 0.145899,-0.558481 0.287109,-0.675781 0.40622,-0.3375 1.136974,-1.494944 1.240234,-1.964844 0.07767,-0.3539 0.04262,-0.444485 -0.199218,-0.521485 -0.16118,-0.0511 -0.292969,-0.176696 -0.292969,-0.279296 0,-0.1027 -0.208611,-0.265375 -0.462891,-0.359375 -0.25428,-0.0941 -0.56355,-0.22311 -0.6875,-0.28711 -0.04319,-0.02235 -0.0804,-0.03361 -0.115234,-0.0332 z m 9.587891,0.236328 c -0.0243,-0.01775 -0.02685,-0.0041 -0.002,0.04492 0.04968,0.0977 0.02235,0.177734 -0.06055,0.177734 -0.08316,0 -0.150391,0.0712 -0.150391,0.158204 0,0.086 0.09549,0.118218 0.212891,0.07422 0.117349,-0.0451 0.21289,-0.01836 0.21289,0.05664 0,0.0757 0.03121,0.136719 0.07031,0.136719 0.13872,0 0.06854,-0.23336 -0.152344,-0.50586 -0.0616,-0.076 -0.106561,-0.124828 -0.130859,-0.142578 z m -0.757813,0.113282 c -0.01677,0.03919 0.07891,0.215649 0.298828,0.5 0.07561,0.0979 0.193519,0.177734 0.261719,0.177734 0.06816,0 -0.01549,-0.159769 -0.185547,-0.355469 -0.228935,-0.2633 -0.358229,-0.361453 -0.375,-0.322265 z m 1.886719,0.310546 c -0.03817,0.0063 -0.0625,0.03183 -0.0625,0.08008 0,0.0718 0.11305,0.195391 0.25,0.275391 0.32352,0.1892 0.323322,0.188272 0.232422,-0.04883 -0.06779,-0.17775 -0.305413,-0.325484 -0.419922,-0.306641 z m -4.908203,0.308594 c -0.02186,-0.0036 -0.04975,0.0024 -0.08398,0.01563 -0.10517,0.0402 -0.191406,0.193597 -0.191406,0.341797 0,0.388 0.238906,0.333234 0.316406,-0.07227 0.03517,-0.183899 0.02457,-0.274364 -0.04102,-0.285156 z m 4.78125,0.214844 C 20.83865,15.9241 20.55326,16.0744 20.257812,16.3828 c -0.32586,0.3397 -0.379781,0.492063 -0.300781,0.851563 0.09367,0.4265 0.107432,0.433328 0.488281,0.236328 0.355201,-0.1849 0.407661,-0.177734 0.587891,0.07227 0.2665,0.3694 0.536886,0.347153 0.722656,-0.06055 0.181,-0.3972 -0.170811,-1.228516 -0.519531,-1.228516 -0.11532,0 -0.208984,-0.06458 -0.208984,-0.142578 0,-0.06808 -0.02304,-0.10947 -0.06445,-0.128906 z m 1.779297,2.11914 c -0.08316,0 -0.150391,0.06458 -0.150391,0.142579 0,0.0783 0.0284,0.142578 0.0625,0.142578 0.03454,0 0.10209,-0.06458 0.150391,-0.142578 0.04858,-0.0782 0.0204,-0.142579 -0.0625,-0.142579 z" transform="translate(0 1020.362)"/><path fill="#f8b84e" style="isolation:auto;mix-blend-mode:normal" d="m 8.500221,1050.3622 c 0,-1.1426 0.96634,-2.0625 2.16668,-2.0625 l 8.66664,0 c 1.20034,0 2.16668,0.9199 2.16668,2.0625 l -6.5,0 z" color="#000" overflow="visible"/></g></g></svg>