<svg xmlns="http://www.w3.org/2000/svg" width="36" height="36" viewBox="0 0 36 36"><g transform="translate(0 -1016.362)"><rect width="36" height="36" y="1016.362" fill="#f8b84e" rx="6" ry="6"/><g transform="translate(2 -2)"><path fill="#34485c" d="m 16.000013,1024.3622 c -6.6274116,0 -11.9999892,5.3727 -11.9999892,12 0,6.6273 5.3725776,12 11.9999892,12 6.62741,0 11.999987,-5.3727 11.999987,-12 0,-6.6273 -5.372577,-12 -11.999987,-12 z" color="#000" overflow="visible" style="isolation:auto;mix-blend-mode:normal"/><path fill="none" stroke="#34485c" stroke-dashoffset="1.4" stroke-linejoin="round" d="m 16.000006,1022.8621 a 13.500047,13.500047 0 0 1 12.472417,8.3338 13.500047,13.500047 0 0 1 -2.926443,14.7123 13.500047,13.500047 0 0 1 -14.712219,2.9264 13.500047,13.500047 0 0 1 -8.333802,-12.4724" color="#000" overflow="visible" style="isolation:auto;mix-blend-mode:normal"/><path fill="none" stroke="#34485c" stroke-dasharray="1 1" stroke-dashoffset=".7" stroke-linejoin="round" d="m 2.499959,1036.3622 a 13.500047,13.500047 0 0 1 13.500047,-13.5001" color="#000" overflow="visible" style="isolation:auto;mix-blend-mode:normal"/><path style="isolation:auto;mix-blend-mode:normal" d="m 19.090903,1028.8622 -4.090907,4.0909 -4.090907,-4.0909 -3.409089,3.4092 4.090907,4.0908 -4.090907,4.0908 3.409089,3.4092 4.090907,-4.0909 4.090907,4.0909 3.409089,-3.4092 -4.090907,-4.0908 4.090907,-4.0908 -3.409089,-3.4092 z" color="#000" opacity=".15" overflow="visible"/><path fill="#f05542" d="m 20.09093,1028.8622 -4.090907,4.0909 -4.090907,-4.0909 -3.4090893,3.4092 4.0909073,4.0908 -4.0909073,4.0908 3.4090893,3.4092 4.090907,-4.0909 4.090907,4.0909 3.409089,-3.4092 -4.090907,-4.0908 4.090907,-4.0908 -3.409089,-3.4092 z" color="#000" overflow="visible" style="isolation:auto;mix-blend-mode:normal"/></g></g></svg>