<svg xmlns="http://www.w3.org/2000/svg" width="36" height="36" viewBox="0 0 36 36"><g transform="translate(0 -1016.362)"><rect width="36" height="36" y="1016.362" fill="#f8b84e" rx="6" ry="6"/><g transform="translate(-37 -214)"><rect width="17" height="30" x="-63" y="1233.362" color="#000" opacity=".15" overflow="visible" rx="1" style="isolation:auto;mix-blend-mode:normal" ry="1" transform="scale(-1 1)"/><rect width="17" height="30" x="-64" y="1233.362" fill="#e9eded" color="#000" overflow="visible" rx="1" ry="1" transform="scale(-1 1)" style="isolation:auto;mix-blend-mode:normal"/><path fill="#34485c" style="isolation:auto;mix-blend-mode:normal" d="m 61.857142,1236.3622 0,22 -12.857144,0 0,-22 z" color="#000" overflow="visible"/><path d="M43 1239.3622l0 7.03 6.296947 0 2.404483 2.97 0-2.97 1.29857 0 0-7.03zM66 1246.3622l0 7.03-6.296947 0-2.404483 2.97 0-2.97-1.29857 0 0-7.03z" color="#000" opacity=".15" overflow="visible" style="isolation:auto;mix-blend-mode:normal"/><circle cx="54.857" cy="1260.862" r="1.5" opacity=".15"/><rect width="4" height="1" x="52.5" y="1234.362" fill-opacity=".996" opacity=".15" rx="0" ry="0"/><rect width="4" height="1" x="53.5" y="1234.362" fill="#3e5164" fill-opacity=".996" rx="0" ry="0"/><circle cx="55.857" cy="1260.862" r="1.5" fill="#34485c"/><path fill="#f05542" style="isolation:auto;mix-blend-mode:normal" d="m 44,1239.3622 0,7.03 6.296947,0 2.404483,2.97 0,-2.97 1.29857,0 0,-7.03 z" color="#000" overflow="visible"/><path fill="none" stroke="#34485c" d="M46 1241.8622l6 0M46 1243.8622l3 0M50.285714 1243.8622l.857143 0"/><path fill="#4bbfeb" d="m 67,1246.3622 0,7.03 -6.296947,0 -2.404483,2.97 0,-2.97 -1.29857,0 0,-7.03 z" color="#000" overflow="visible" style="isolation:auto;mix-blend-mode:normal"/><g opacity=".15" transform="translate(-1)"><circle cx="60.5" cy="1249.862" r=".5"/><circle cx="62.5" cy="1249.862" r=".5"/><circle cx="64.5" cy="1249.862" r=".5"/></g><g transform="translate(-.5)"><circle cx="60.5" cy="1249.862" r=".5" fill="#34485c"/><circle cx="62.5" cy="1249.862" r=".5" fill="#34485c"/><circle cx="64.5" cy="1249.862" r=".5" fill="#34485c"/></g></g></g></svg>