<svg xmlns="http://www.w3.org/2000/svg" width="36" height="36" viewBox="0 0 36 36"><g transform="translate(838.5 -1163.862)"><rect width="36" height="36" x="-838.5" y="1163.862" fill="#f05542" rx="6" ry="6"/><g transform="translate(-588.5 -45.5)"><path d="m -245,1215.3622 0,26 2.38476,0 9.19727,0 3.41797,0 5,0 0,-4.9316 0,-3.3516 0,-10.4414 0,-1 0,-1.2754 -5,-5 z" color="#000" opacity=".15" overflow="visible" style="isolation:auto;mix-blend-mode:normal"/><path fill="#e9eded" style="isolation:auto;mix-blend-mode:normal" d="m -244,1214.3622 0,26 2.38476,0 9.19727,0 3.41797,0 5,0 0,-4.9316 0,-3.3516 0,-10.4414 0,-1 0,-1.2754 -5,-5 z" color="#000" opacity=".94" overflow="visible"/><path fill-rule="evenodd" d="m -230,1214.3622 0,5 5,0" opacity=".15"/><rect width="16" height="1.067" x="-242" y="1230.229" fill="#354b5d" fill-opacity=".996" rx="0" ry="0"/><rect width="16" height="1.067" x="-242" y="1233.429" fill="#354b5d" fill-opacity=".996" rx="0" ry="0"/><rect width="9" height="1" x="-242" y="1236.362" fill="#354b5d" fill-opacity=".996" rx="0" ry="0"/><path fill="#34485c" fill-rule="evenodd" d="m -229,1214.3622 0,5 5,0" opacity=".94"/><g opacity=".94" transform="translate(-244.5 145.634)"><path d="m -362.5,354 c -0.83101,0 -1.5,0.669 -1.5,1.5 l 0,1.5 0,15 2,4 2,-4 0,-15 0,-1.5 c 0,-0.831 -0.66899,-1.5 -1.5,-1.5 l -0.5,0 z" color="#000" opacity=".15" overflow="visible" transform="translate(385.5 719.728)" style="isolation:auto;mix-blend-mode:normal"/><rect style="isolation:auto;mix-blend-mode:normal" width="4" height="14" x="22.5" y="1077.728" fill="#4bbfeb" color="#000" overflow="visible"/><path fill="#e9eded" style="isolation:auto;mix-blend-mode:normal" d="M22.499999 1091.728l4 0-2 4zM22.499999 1076.728l0-1.5c0-.831.66901-1.5 1.50002-1.5l.99996 0c.83101 0 1.50002.669 1.50002 1.5l0 1.5z" color="#000" overflow="visible"/><path fill="#34485c" d="M23.999999 1094.728l.5 1 .5-1-1 0zM22.499998 1076.728l4 0 0 1-4 0z" color="#000" overflow="visible" style="isolation:auto;mix-blend-mode:normal"/></g><rect width="16" height="1" x="-242" y="1224.362" fill="#354b5d" fill-opacity=".996" rx="0" ry="0"/><rect width="16" height="1" x="-242" y="1227.362" fill="#354b5d" fill-opacity=".996" rx="0" ry="0"/><rect width="5" height="1" x="-242" y="1218.362" fill="#f17f53" rx="0" ry="0"/><rect width="16" height="1" x="-242" y="1221.362" fill="#354b5d" fill-opacity=".996" rx="0" ry="0"/></g></g></svg>