<svg xmlns="http://www.w3.org/2000/svg" width="36" height="36" viewBox="0 0 36 36"><g transform="translate(0 -1016.362)"><rect width="36" height="36" y="1016.362" fill="#f8b84e" rx="6" ry="6"/><g transform="translate(-2.5 -201)"><path d="m 8.01759,1228.3622 c -0.55401,0 -1,0.446 -1,1 l 0,5.0273 -0.0176,0 0,8.9395 -2,0 c 0,1.1268 0.90645,2.0332 2.0332,2.0332 l 23.94922,0 c 1.12676,0 2.03516,-0.9064 2.03516,-2.0332 l -2.01758,0 0,-0.8789 c 0.003,-0.03 0.0176,-0.057 0.0176,-0.088 l 0,-13 c 0,-0.554 -0.44599,-1 -1,-1 l -22,0 z" color="#000" opacity=".141" overflow="visible" style="isolation:auto;mix-blend-mode:normal"/><rect width="24" height="11" x="8.001" y="1232.362" fill="#2b4255" color="#000" opacity=".94" overflow="visible" style="isolation:auto;mix-blend-mode:normal" rx="0" ry="0"/><rect width="24" height="15" x="8.001" y="1228.362" fill="#2b4255" color="#000" opacity=".94" overflow="visible" rx="1" style="isolation:auto;mix-blend-mode:normal" ry="1"/><rect style="isolation:auto;mix-blend-mode:normal" width="21.923" height="12.846" x="9.039" y="1229.516" fill="#4bbfeb" color="#000" opacity=".94" overflow="visible"/><path d="m 20,1225.3622 0,9 3,0 0,3.0001 2.773828,-3.0001 9.226172,0 0,-9 z" color="#000" opacity=".15" overflow="visible" style="isolation:auto;mix-blend-mode:normal"/><path fill="#576d7e" d="m 34.01759,1243.3283 c 0,1.1268 -0.9071,2.0339 -2.03386,2.0339 l -23.94922,0 c -1.12675,0 -2.03385,-0.9071 -2.03385,-2.0339 z" color="#000" opacity=".94" overflow="visible" style="isolation:auto;mix-blend-mode:normal"/><path fill="#cad1d8" style="isolation:auto;mix-blend-mode:normal" d="m 22.66297,1243.3283 c 0,0.5157 -0.41512,0.9307 -0.93077,0.9307 l -3.44615,0 c -0.51565,0 -0.93077,-0.415 -0.93077,-0.9307" color="#000" opacity=".94" overflow="visible"/><path fill="#e7ebeb" style="isolation:auto;mix-blend-mode:normal" d="m 21,1225.3622 0,9 3,0 0,3.0001 2.773828,-3.0001 9.226172,0 0,-9 z" color="#000" overflow="visible"/><path style="isolation:auto;mix-blend-mode:normal" d="m 24,1228.8622 a 0.99999946,0.99999946 0 0 0 -1,1 0.99999946,0.99999946 0 0 0 1,1 0.99999946,0.99999946 0 0 0 1,-1 0.99999946,0.99999946 0 0 0 -1,-1 z m 3.5,0 a 0.99999946,0.99999946 0 0 0 -1,1 0.99999946,0.99999946 0 0 0 1,1 0.99999946,0.99999946 0 0 0 1,-1 0.99999946,0.99999946 0 0 0 -1,-1 z m 3.5,0 a 0.99999946,0.99999946 0 0 0 -1,1 0.99999946,0.99999946 0 0 0 1,1 0.99999946,0.99999946 0 0 0 1,-1 0.99999946,0.99999946 0 0 0 -1,-1 z" color="#000" opacity=".15" overflow="visible"/><circle cx="25" cy="1229.862" r="1" fill="#34485c" color="#000" overflow="visible" style="isolation:auto;mix-blend-mode:normal"/><circle style="isolation:auto;mix-blend-mode:normal" cx="28.5" cy="1229.862" r="1" fill="#34485c" color="#000" overflow="visible"/><circle cx="32" cy="1229.862" r="1" fill="#34485c" color="#000" overflow="visible" style="isolation:auto;mix-blend-mode:normal"/></g></g></svg>