<svg xmlns="http://www.w3.org/2000/svg" width="36" height="36" viewBox="0 0 36 36"><g transform="translate(0 -1016.362)"><rect width="36" height="36" y="1016.362" fill="#f8b84e" rx="6" ry="6"/><g opacity=".94" transform="translate(0 -1)"><path fill-rule="evenodd" style="line-height:normal;text-indent:0;text-align:start;text-decoration-line:none;text-decoration-style:solid;text-decoration-color:#000;text-transform:none;block-progression:tb;isolation:auto;mix-blend-mode:normal" d="m 7.6445312,21.144531 -2.2109374,2.210938 0.4433593,0.441406 2.2109375,-2.210937 -0.4433594,-0.441407 z m 0.8847657,0.884766 -3.5371094,3.537109 0.4414063,0.441406 3.5371093,-3.537109 -0.4414062,-0.441406 z m 0.8847656,0.882812 -2.6523437,2.654297 0.4414062,0.441406 2.6523438,-2.652343 -0.4414063,-0.44336 z m -4.421875,0.884766 -0.4414063,0.443359 0.4414063,0.441407 0.4414063,-0.441407 -0.4414063,-0.443359 z m -0.4414063,2.210937 -0.4433593,0.441407 0.4433593,0.443359 0.4414063,-0.443359 -0.4414063,-0.441407 z m 1.7675782,0 -0.4414063,0.441407 0.4414063,0.443359 0.4433594,-0.443359 -0.4433594,-0.441407 z" color="#000" font-family="sans-serif" font-weight="400" opacity=".15" overflow="visible" transform="translate(0 1020.362)" white-space="normal"/><path fill-rule="evenodd" d="M13.212566 1042.9133c2.526399-1.0948 4.737031-2.4211 6.64715-3.8856 1.768506 3.537-1.806881 8.7018-7.974811 11.3373 3.07304-3.9619 3.405655-6.2579 1.327661-7.4517zM8.1356548 1039.3438l-.4421265 1.3264 3.0064637 3.0065 1.32638-.4422zM8.4516426 1038.1524c1.0947934-2.5264 2.4211724-4.737 3.8856284-6.6472-3.5370122-1.7684-8.7017564 1.8069-11.33727195 7.9749 3.96189925-3.0731 6.25790165-3.4057 7.45164355-1.3277z" opacity=".15"/><circle cx="19.062" cy="1033.301" r="9.188" fill="#4bbfeb"/><path fill="#f05542" fill-rule="evenodd" d="m 9.4516426,1038.1524 c 1.0947934,-2.5264 2.4211724,-4.737 3.8856284,-6.6472 -3.5370122,-1.7684 -8.7017564,1.8069 -11.337272,7.9749 3.9618993,-3.0731 6.2579017,-3.4057 7.4516436,-1.3277 z"/><path fill-rule="evenodd" d="m 21.791016,3.4746094 c -0.405209,0.1719747 -0.768482,0.4116251 -1.158204,0.609375 -5.1e-4,2.59e-4 -0.0014,-2.589e-4 -0.002,0 C 14.623165,7.1309132 10.408278,13.044674 8.2207031,18.357422 l 4.4218749,4.421875 c 5.312723,-2.187614 11.226529,-6.402473 14.273438,-12.410156 l 0,-0.002 c 0.197748,-0.3897181 0.437393,-0.7530344 0.609375,-1.1582036 l -5.734375,-5.734375 z" opacity=".15" transform="translate(0 1020.362)"/><path fill="#f05542" fill-rule="evenodd" d="M14.212566 1042.9133c2.526399-1.0948 4.737031-2.4211 6.64715-3.8856 1.768506 3.537-1.806881 8.7018-7.974811 11.3373 3.07304-3.9619 3.405655-6.2579 1.327661-7.4517zM9.1356548 1039.3438l-.4421265 1.3264 3.0064637 3.0065 1.32638-.4422z"/><path fill="#2b4255" fill-rule="evenodd" style="line-height:normal;text-indent:0;text-align:start;text-decoration-line:none;text-decoration-style:solid;text-decoration-color:#000;text-transform:none;block-progression:tb;isolation:auto;mix-blend-mode:normal" d="M8.6449564 1041.5068l-2.2106322 2.2106.4421264.4421 2.2106322-2.2106-.4421264-.4421zM5.9921978 1044.1595l-.4421265.4421.4421265.4422.4421264-.4422-.4421264-.4421zM9.5292092 1042.391l-3.5370114 3.537.4421264.4422 3.5370114-3.537-.4421264-.4422zM5.5500713 1046.3702l-.4421264.442.4421264.4422.4421265-.4422-.4421265-.442zM10.413462 1043.2752l-2.6527585 2.6528.4421264.4422 2.6527591-2.6528-.442127-.4422zM7.318577 1046.3702l-.4421264.442.4421264.4422.4421265-.4422-.4421265-.442z" color="#000" font-family="sans-serif" font-weight="400" overflow="visible" white-space="normal"/><path fill="#e9eded" fill-rule="evenodd" d="m 27.916708,1030.7303 -6.284757,-6.2848 c -6.008511,3.0467 -10.223735,8.9618 -12.4114964,14.275 l 4.4212644,4.4213 c 5.313175,-2.1878 11.228309,-6.403 14.274989,-12.4115 z"/><path style="line-height:normal;text-indent:0;text-align:start;text-decoration-line:none;text-decoration-style:solid;text-decoration-color:#000;text-transform:none;block-progression:tb;isolation:auto;mix-blend-mode:normal" d="m 21.09375,7.8125 c -0.537911,0 -1.074976,0.2038781 -1.482422,0.6113281 -0.814884,0.8149 -0.814884,2.1499439 0,2.9648439 0.814891,0.8148 2.151906,0.8148 2.966797,0 0.814898,-0.8149 0.814898,-2.1499439 0,-2.9648439 C 22.170676,8.0163781 21.631661,7.8125 21.09375,7.8125 Z M 17.296875,12 c -0.437662,-1.75e-4 -0.874039,0.166297 -1.205078,0.498047 -0.662078,0.6621 -0.662078,1.751962 0,2.414062 0.662078,0.6621 1.750031,0.6607 2.412109,0 0.662078,-0.6621 0.662078,-1.750109 0,-2.412109 l 0,-0.002 C 18.172867,12.166997 17.734537,12.000175 17.296875,12 Z" color="#000" font-family="sans-serif" font-weight="400" opacity=".15" overflow="visible" transform="translate(0 1020.362)" white-space="normal"/><ellipse cx="744.132" cy="712.886" fill="#576d7e" stroke="#34485c" stroke-linecap="round" stroke-linejoin="round" rx="1.597" ry="1.597" transform="rotate(45)"/><ellipse cx="744.132" cy="718.424" fill="#576d7e" rx="1.206" ry="1.206" transform="rotate(45)"/><path fill-rule="evenodd" d="m 28.999999,1022.3622 c -2.622773,0 -5.025691,0.5471 -7.209592,1.474 l 5.735556,5.7356 c 0.9269,-2.1839 1.474027,-4.5868 1.474036,-7.2096 z" opacity=".15"/><path fill="#34485c" fill-rule="evenodd" d="m 28.526139,1029.5717 -5.735556,-5.7357 c -0.405739,0.1722 -0.768548,0.4118 -1.158852,0.6097 l 6.284757,6.2848 c 0.197899,-0.3903 0.437444,-0.7531 0.609651,-1.1588 z"/><path fill="#f05542" fill-rule="evenodd" d="m 29.999999,1022.3622 c -2.622773,0 -5.025691,0.5471 -7.209592,1.474 l 5.735556,5.7356 c 0.9269,-2.1839 1.474027,-4.5868 1.474036,-7.2096 z"/><ellipse cx="744.132" cy="718.257" fill="#576d7e" stroke="#34485c" stroke-linecap="round" stroke-linejoin="round" rx="1.206" ry="1.206" transform="rotate(45)"/></g></g></svg>