<?xml version="1.0" standalone="no"?>
<!DOCTYPE svg PUBLIC "-//W3C//DTD SVG 20010904//EN"
 "http://www.w3.org/TR/2001/REC-SVG-20010904/DTD/svg10.dtd">
<svg version="1.0" xmlns="http://www.w3.org/2000/svg"
 width="480.000000pt" height="480.000000pt" viewBox="0 0 480.000000 480.000000"
 preserveAspectRatio="xMidYMid meet">
<metadata>
Created by potrace 1.11, written by Peter Selinger 2001-2013
</metadata>
<g transform="translate(0.000000,480.000000) scale(0.100000,-0.100000)"
fill="#000000" stroke="none">
<path d="M2405 4669 c-22 -17 -130 -88 -240 -159 -110 -71 -225 -150 -255
-175 -58 -48 -76 -56 -65 -28 8 24 47 275 42 279 -2 2 -28 -37 -58 -87 -30
-50 -76 -116 -102 -147 -27 -31 -76 -99 -110 -150 l-61 -92 -26 72 c-32 92
-61 138 -113 183 -48 41 -93 47 -123 14 -14 -16 -18 -35 -17 -87 0 -37 6 -80
12 -96 14 -35 34 -233 26 -247 -4 -5 -34 11 -68 35 -61 43 -226 131 -233 124
-2 -2 30 -42 70 -89 72 -83 116 -150 116 -176 0 -7 -17 -20 -37 -28 -73 -30
-105 -61 -210 -198 -124 -164 -208 -250 -332 -342 -51 -37 -90 -69 -89 -71 2
-1 63 18 137 42 73 25 136 43 138 40 3 -2 -13 -35 -36 -73 -22 -37 -49 -94
-61 -127 -11 -32 -29 -72 -39 -90 -11 -18 -25 -63 -32 -101 l-11 -70 -37 -2
c-78 -5 -152 -59 -182 -133 -26 -66 -17 -242 23 -450 20 -102 44 -232 52 -290
l16 -104 -58 -114 -58 -115 -85 -38 c-116 -52 -115 -51 -154 -129 l-36 -71
-37 7 c-40 7 -40 7 -59 5 -21 -2 -14 -21 7 -21 16 0 20 -7 20 -32 0 -39 13
-63 29 -54 6 4 20 24 30 44 10 20 38 73 62 116 43 79 45 80 113 108 38 15 70
27 71 26 1 -2 -6 -57 -16 -123 -35 -235 -22 -343 69 -554 78 -179 175 -315
353 -494 70 -70 124 -129 120 -131 -10 -6 -207 -43 -273 -51 -67 -8 -95 5
-168 80 -25 26 -67 65 -95 88 -48 39 -49 39 -20 7 17 -19 60 -65 98 -102 37
-37 63 -69 58 -72 -5 -4 -50 -9 -100 -13 -50 -3 -89 -9 -85 -12 3 -3 58 -6
122 -7 136 -1 239 -14 299 -39 38 -15 43 -21 43 -49 0 -42 -7 -50 -63 -76 -26
-12 -47 -24 -47 -26 0 -2 31 -4 68 -4 77 0 83 6 98 87 11 62 49 138 82 164 17
13 50 55 73 94 54 89 207 396 253 506 34 82 34 88 29 181 l-6 96 72 12 c133
22 290 -8 389 -76 75 -50 276 -251 364 -364 41 -52 116 -155 167 -229 138
-200 277 -368 326 -392 13 -7 9 0 -10 18 -115 109 -225 269 -225 327 0 42 17
47 58 17 31 -22 103 -53 109 -47 5 4 -84 78 -140 116 -52 35 -56 53 -11 44 20
-4 61 -8 92 -9 32 -1 116 -12 187 -25 212 -37 443 -27 603 26 40 13 77 24 82
24 17 0 11 -56 -16 -140 -25 -80 -26 -106 -2 -82 19 19 26 15 38 -24 11 -33
10 -38 -16 -66 -21 -22 -24 -28 -9 -20 11 5 29 20 39 31 19 20 18 22 -3 77
-11 31 -21 58 -21 60 0 13 31 0 64 -28 22 -18 37 -25 34 -17 -2 7 -25 28 -51
44 l-47 30 6 71 6 70 -109 86 c-116 91 -173 149 -173 174 0 8 5 58 11 111 10
90 16 108 84 247 l73 150 7 -59 c4 -32 5 -95 2 -139 l-6 -81 19 37 c29 55 70
203 89 326 l17 107 28 -100 c30 -104 92 -285 102 -294 3 -3 3 32 -1 79 -9 118
16 460 34 460 4 0 15 -15 25 -32 22 -38 106 -136 189 -222 l57 -59 -31 68
c-30 66 -60 198 -73 319 -8 72 -1 68 69 -37 27 -42 51 -75 52 -73 1 1 -6 29
-17 63 -23 74 -40 163 -31 163 4 0 39 -39 78 -88 39 -48 95 -109 124 -137 48
-46 51 -47 30 -15 -70 112 -128 230 -114 230 4 0 34 -28 66 -62 32 -35 56 -56
53 -48 -2 8 -12 40 -21 70 -10 30 -35 90 -56 132 -22 43 -37 78 -34 78 3 0 29
-13 58 -29 64 -36 238 -113 243 -108 3 2 -10 21 -27 43 -86 106 -222 345 -200
352 5 2 54 -9 109 -23 55 -14 104 -25 108 -25 4 0 -12 13 -37 28 -24 16 -69
52 -99 80 -48 45 -52 51 -32 52 35 0 163 -45 250 -89 83 -42 153 -90 215 -149
20 -20 37 -32 37 -27 0 6 -21 48 -45 94 -51 94 -140 225 -239 350 -36 47 -65
85 -64 87 2 1 37 -7 78 -17 105 -27 130 -21 60 15 -59 30 -214 142 -245 176
-16 17 -16 20 -2 20 23 0 173 -48 234 -76 29 -12 53 -20 53 -17 0 3 -19 28
-42 56 -50 60 -164 152 -231 187 -26 14 -47 29 -47 34 0 9 357 0 418 -10 53
-10 36 9 -44 49 -100 50 -248 143 -359 228 -91 68 -159 128 -153 134 2 2 66
-10 142 -26 77 -16 141 -27 144 -25 2 3 -18 16 -45 30 -26 13 -57 32 -68 41
l-20 16 20 -5 c11 -3 97 -21 190 -41 94 -20 179 -38 190 -41 11 -3 -41 25
-115 63 -158 80 -310 178 -418 269 -297 251 -392 318 -533 376 -43 17 -79 35
-79 38 0 4 23 17 51 30 93 42 197 120 284 213 122 129 122 133 12 86 -150 -64
-588 -199 -587 -180 1 3 58 44 128 91 141 94 234 161 229 166 -2 2 -19 -1 -39
-6 -85 -24 -368 -61 -533 -70 -395 -23 -399 -23 -524 -94 -25 -14 -47 -24 -49
-22 -2 2 23 44 56 93 86 128 162 253 154 253 -4 0 -25 -14 -47 -31z m-1027
-293 c91 -47 146 -172 177 -394 31 -227 37 -347 24 -475 -14 -144 -17 -327 -6
-416 7 -57 7 -63 -8 -57 -14 5 -13 0 5 -26 24 -38 28 -46 70 -149 17 -42 49
-101 71 -130 l40 -53 -38 -12 c-35 -11 -31 -12 37 -7 48 3 106 0 160 -11 54
-10 105 -13 139 -9 52 6 54 5 49 -15 -4 -12 -3 -22 2 -22 4 0 38 23 76 50 95
71 187 113 256 118 76 6 101 -2 148 -44 55 -50 82 -97 78 -136 -4 -41 -34 -58
-108 -58 -70 0 -255 -42 -309 -69 -40 -21 -57 -36 -26 -25 33 13 11 -5 -47
-40 -134 -78 -274 -217 -407 -404 -61 -86 -123 -143 -221 -204 -106 -67 -174
-118 -190 -142 -7 -11 -7 -16 -1 -11 19 11 12 -3 -32 -73 -24 -37 -61 -94 -82
-127 -40 -63 -83 -118 -176 -225 -71 -82 -231 -336 -301 -480 -60 -124 -48
-119 -164 -63 -79 39 -98 63 -173 223 -64 137 -91 245 -91 362 0 156 24 292
65 358 18 30 49 88 70 129 l37 75 14 -32 c15 -36 28 -44 15 -9 -5 12 -16 74
-25 137 -9 63 -35 212 -58 330 -71 371 -54 491 77 551 79 37 112 22 188 -84
25 -34 86 -102 136 -150 58 -57 100 -108 115 -140 28 -56 61 -226 52 -262 -8
-32 -72 -78 -99 -71 -21 5 -111 24 -152 32 -23 4 -65 61 -65 87 0 16 2 16 30
2 23 -12 38 -13 63 -6 l32 9 -36 1 c-34 1 -104 44 -206 127 l-32 26 8 -30 c5
-16 14 -39 20 -50 17 -32 14 -41 -21 -55 l-32 -13 44 -26 c106 -62 183 -98
212 -98 18 0 60 -7 95 -16 60 -15 64 -15 90 4 45 32 63 56 66 91 4 30 -6 102
-18 141 -4 12 5 15 40 16 49 1 113 37 141 79 9 14 19 46 22 70 4 44 6 45 36
43 79 -6 128 29 161 116 18 45 17 47 -24 251 -22 112 -41 218 -41 235 0 22
-16 52 -54 102 l-53 71 24 61 c16 39 28 96 34 161 6 55 16 143 24 195 17 116
6 404 -19 490 -22 78 -21 145 4 170 24 24 32 25 68 6z m1847 -82 c-130 -45
-397 -109 -355 -85 8 5 87 27 175 49 88 23 180 48 205 56 91 29 72 13 -25 -20z
m-133 -138 c96 -19 285 -92 375 -146 77 -46 424 -318 368 -288 -5 3 -50 30
-100 60 -49 30 -128 74 -175 99 -47 24 -86 47 -88 52 -2 4 -12 7 -22 7 -10 0
-47 11 -83 25 -159 60 -391 103 -562 106 -73 1 -84 3 -60 10 49 17 272 2 408
-27 132 -28 212 -52 296 -90 55 -26 79 -25 45 1 -74 56 -253 132 -414 175
-113 31 -107 39 12 16z m248 -221 c103 -28 263 -89 295 -112 19 -14 19 -15 -5
-8 -14 4 -43 16 -65 25 -79 36 -205 68 -205 53 0 -5 14 -17 31 -27 43 -25 29
-32 -18 -8 -66 34 -189 72 -265 82 -195 28 -197 29 -28 25 136 -4 181 -9 260
-30z m-240 -43 c52 -18 106 -39 120 -48 l25 -15 -25 6 c-14 3 -70 17 -125 31
-107 28 -237 42 -405 45 -74 1 -96 4 -75 9 17 5 111 7 210 6 173 -2 184 -4
275 -34z m-121 -71 c94 -21 336 -125 386 -166 36 -30 25 -26 -115 42 -133 65
-199 87 -330 113 -223 43 -214 40 -116 35 48 -3 127 -14 175 -24z m-283 -117
c59 -15 144 -42 187 -60 44 -19 82 -32 84 -30 3 2 -9 17 -26 32 -17 15 -31 31
-31 35 0 4 19 5 43 3 l42 -4 -37 18 c-75 37 -55 36 57 -2 84 -29 246 -107 328
-159 81 -52 101 -77 25 -34 -75 44 -388 165 -388 151 0 -8 19 -25 81 -71 62
-46 199 -180 199 -195 0 -6 -24 12 -52 38 -144 130 -419 255 -648 294 -41 7
-79 16 -83 20 -13 11 105 -8 219 -36z m-202 -70 c66 -9 138 -22 160 -30 40
-13 40 -13 -36 -10 -43 2 -78 0 -78 -5 0 -5 4 -9 9 -9 14 0 191 -119 236 -158
101 -87 193 -184 254 -267 89 -119 94 -128 35 -75 -69 64 -159 131 -229 171
-77 45 -215 101 -215 87 0 -5 28 -42 63 -82 90 -103 99 -116 59 -86 -82 61
-217 148 -284 185 -81 44 -216 105 -231 105 -6 0 37 -44 94 -97 134 -126 162
-154 231 -233 91 -105 248 -328 282 -400 l16 -35 -22 29 c-24 30 -48 62 -207
269 -160 207 -286 333 -463 464 -65 48 -116 88 -114 90 4 4 39 -7 156 -51 105
-39 168 -69 283 -134 59 -33 107 -57 107 -52 0 5 -18 26 -40 46 -22 21 -38 39
-36 41 2 3 75 -23 162 -56 86 -34 162 -61 168 -61 25 0 -160 157 -261 222 -71
45 -228 121 -275 133 -45 11 -33 28 15 22 23 -4 96 -14 161 -23z m1406 -269
c73 -62 160 -128 227 -172 37 -25 -41 8 -129 54 -102 54 -166 108 -246 206
-56 68 -112 150 -112 162 0 3 39 -35 88 -86 48 -50 125 -124 172 -164z m-2687
-72 c16 -16 49 -54 73 -85 l44 -56 1 -99 c0 -59 4 -90 8 -78 7 17 10 15 19
-17 6 -21 21 -94 33 -164 l23 -126 -28 -53 c-31 -60 -62 -78 -122 -73 l-39 3
-12 80 c-8 54 -33 135 -78 250 -37 94 -72 186 -77 205 -6 19 -22 56 -36 82
l-26 46 30 49 c52 85 120 98 187 36z m854 -148 c76 -97 203 -288 203 -305 0
-16 -46 40 -184 224 -70 93 -136 187 -148 210 l-20 41 39 -40 c21 -22 71 -80
110 -130z m-1105 54 c40 -21 68 -76 84 -163 10 -52 21 -86 28 -86 7 0 37 -64
67 -142 49 -130 54 -152 57 -240 3 -54 1 -109 -2 -122 -8 -33 -41 -64 -94 -88
-61 -27 -85 -19 -109 40 -11 26 -40 77 -65 114 -51 74 -78 139 -109 263 -23
89 -39 102 -39 31 0 -47 -17 -106 -30 -106 -5 0 -30 27 -56 61 -46 60 -47 62
-41 119 9 103 127 293 201 326 31 13 74 10 108 -7z m3125 -241 c57 -35 36 -29
-47 13 -44 22 -80 42 -80 44 0 6 91 -34 127 -57z m-236 -61 c108 -90 262 -243
336 -335 75 -94 120 -167 56 -92 -80 95 -139 153 -201 196 -35 26 -66 44 -68
41 -3 -3 30 -40 73 -82 43 -42 65 -69 48 -59 -53 33 -169 121 -190 144 l-20
23 22 -12 c31 -16 35 -14 23 9 -13 24 -13 24 39 5 22 -8 41 -13 41 -11 0 6
-153 153 -198 190 -24 20 -40 36 -35 36 5 0 38 -24 74 -53z m-1126 -227 c3 -4
-8 -13 -25 -18 -28 -10 -31 -9 -59 32 -36 52 -100 97 -149 105 -37 6 -37 7
-40 59 l-3 52 135 -111 c75 -61 138 -114 141 -119z m146 123 c47 -34 50 -45 8
-33 -36 11 -33 8 -48 38 -15 29 -8 28 40 -5z m758 -277 c58 -262 65 -325 15
-152 -37 129 -86 402 -70 385 2 -2 27 -107 55 -233z m-618 157 l24 -26 -40 6
c-22 4 -50 7 -63 7 -20 0 -62 49 -62 72 0 15 119 -35 141 -59z m70 -88 c40
-21 69 -55 69 -81 0 -13 5 -26 10 -29 6 -3 10 -1 10 6 0 8 3 9 9 3 20 -23 61
-423 64 -639 l2 -150 -36 -72 c-68 -132 -186 -270 -339 -397 -165 -137 -281
-196 -386 -196 -88 0 -243 29 -334 62 -101 37 -302 133 -382 183 l-56 35 -7
63 c-7 57 -43 215 -61 262 -4 11 50 -38 120 -110 115 -117 125 -125 100 -80
-51 90 -110 218 -149 318 l-38 98 26 27 c13 15 65 81 114 147 132 176 112 168
227 90 94 -63 214 -130 222 -123 2 2 -19 32 -47 67 -62 76 -149 201 -149 214
0 5 8 6 18 2 9 -4 85 -33 167 -65 167 -63 287 -124 355 -178 25 -19 51 -40 59
-46 14 -11 -71 116 -186 277 -34 48 -59 87 -55 87 4 0 47 -30 96 -66 48 -36
89 -64 91 -62 1 2 -30 59 -71 128 -40 69 -73 131 -73 138 -1 9 19 12 74 10
l75 -2 0 -45 c1 -103 62 -171 153 -171 87 0 147 54 147 133 l0 37 -43 0 c-24
0 -52 6 -62 14 -19 14 -19 16 -2 50 10 21 24 36 34 36 10 0 55 -32 100 -70 45
-39 84 -70 87 -70 3 0 -18 40 -45 89 -27 49 -49 94 -49 99 0 12 105 -5 141
-23z m363 -225 c1 -131 -4 -200 -18 -273 -10 -54 -20 -97 -21 -95 -2 2 3 71
12 153 10 99 13 202 10 300 -4 112 -2 142 6 120 5 -16 11 -109 11 -205z m-614
70 c0 -5 -4 -10 -9 -10 -6 0 -13 5 -16 10 -3 6 1 10 9 10 9 0 16 -4 16 -10z
m274 -1046 c9 -8 16 -28 16 -43 0 -37 -148 -472 -205 -600 -25 -58 -61 -133
-81 -168 -34 -61 -37 -63 -67 -59 -18 3 -68 11 -112 17 -101 13 -248 50 -379
94 -156 52 -191 70 -225 118 -17 23 -86 98 -154 166 -67 68 -110 116 -95 107
25 -16 27 -16 36 0 9 17 11 17 35 1 14 -9 43 -42 64 -72 63 -92 113 -159 113
-151 0 4 -14 28 -31 52 -17 25 -40 72 -51 106 -17 50 -18 62 -7 69 8 5 10 9 4
9 -5 0 1 7 13 16 28 19 101 15 342 -18 173 -24 234 -20 325 23 92 43 284 190
390 298 27 28 50 51 51 51 2 0 10 -7 18 -16z m-1896 -504 c-28 -73 -206 -430
-258 -519 -22 -39 -45 -71 -50 -71 -25 0 -340 336 -340 363 0 3 35 -8 77 -25
88 -34 192 -68 209 -68 13 0 11 43 -8 177 l-11 82 87 145 c47 80 121 187 164
238 43 51 91 111 107 132 l30 40 7 -220 c7 -210 7 -221 -14 -274z m132 290 c0
-3 -22 -11 -49 -16 l-49 -10 -6 44 c-8 57 -8 130 0 160 5 19 15 6 55 -75 27
-53 49 -99 49 -103z m1687 -377 c0 -108 4 -194 11 -218 6 -22 8 -43 4 -47 -9
-9 -222 -23 -222 -14 0 3 12 25 27 49 36 58 103 203 144 315 18 50 34 92 35
92 1 0 1 -80 1 -177z m71 -51 c7 -6 51 -42 98 -78 46 -36 84 -69 84 -74 0 -9
-111 -44 -171 -54 -35 -6 -36 -5 -47 33 -7 21 -15 81 -18 132 l-7 94 24 -20
c13 -11 29 -26 37 -33z"/>
<path d="M1258 2267 c-60 -62 -96 -106 -122 -150 -21 -36 -32 -47 -44 -42 -10
4 -30 9 -47 11 -26 5 -28 4 -14 -8 64 -53 90 -82 109 -117 11 -23 22 -41 24
-41 1 0 -3 29 -9 64 -18 94 -12 108 124 276 28 36 12 40 -21 7z"/>
<path d="M1080 1540 c-41 -10 -111 -26 -155 -36 -103 -22 -83 -30 25 -10 45 9
87 16 92 16 5 0 -5 -25 -22 -56 -18 -30 -30 -57 -28 -59 2 -2 25 27 51 66 27
38 56 69 65 69 22 1 82 28 62 28 -8 1 -49 -8 -90 -18z"/>
<path d="M3133 2408 c-6 -7 -29 -46 -53 -87 -36 -62 -49 -76 -89 -94 -60 -27
-191 -29 -275 -4 -32 10 -60 16 -63 14 -2 -3 8 -23 24 -45 42 -60 87 -77 208
-77 109 0 152 12 199 54 58 53 107 211 73 239 -11 10 -16 10 -24 0z"/>
<path d="M2377 1843 c-11 -11 -8 -35 4 -28 5 4 19 -1 30 -11 10 -9 19 -13 19
-7 0 14 -45 54 -53 46z"/>
<path d="M2297 1792 c-10 -10 -17 -22 -17 -26 0 -9 49 27 50 37 0 13 -17 7
-33 -11z"/>
<path d="M2350 1433 c-21 -8 -60 -44 -73 -68 -5 -11 7 -3 27 18 21 20 44 37
51 37 8 0 17 5 20 10 7 11 -1 12 -25 3z"/>
<path d="M2345 1310 c-3 -6 1 -7 9 -4 18 7 21 14 7 14 -6 0 -13 -4 -16 -10z"/>
<path d="M3411 289 c-1 -25 6 -42 20 -55 12 -10 57 -65 101 -121 43 -56 83
-105 89 -109 6 -3 -36 54 -92 127 -56 73 -106 146 -110 163 l-7 31 -1 -36z"/>
</g>
</svg>
